<svg xmlns="http://www.w3.org/2000/svg" xmlns:xlink="http://www.w3.org/1999/xlink" height="800px" width="800px" version="1.1" id="Layer_1" viewBox="0 0 509.287 509.287" xml:space="preserve">
<circle style="fill:#616a6b;" cx="254.644" cy="254.644" r="254.644"/>
<path style="fill:#F1F3F7;" d="M297.028,388.238c-0.339,0-0.678,0-0.678,0c-5.086-0.339-8.816-4.069-9.494-9.155l-20.683-178.691  L237.69,337.038c-1.017,4.747-5.086,8.138-10.172,8.138l0,0c-4.747,0-9.155-3.391-10.172-8.138l-25.091-113.25l-9.494,33.907  c-1.356,4.408-5.425,7.46-10.172,7.46h-84.09c-5.764,0-10.511-4.747-10.511-10.511c0-5.764,4.747-10.511,10.511-10.511h76.291  l18.649-65.78c1.356-4.747,5.425-7.799,10.172-7.46c4.747,0,8.816,3.391,9.833,8.138l23.735,106.808l31.873-152.244  c1.017-5.086,5.425-8.477,10.511-8.138c5.086,0.339,9.155,4.069,9.833,9.155l22.04,189.881l19.666-70.527  c1.356-4.408,5.425-7.46,9.833-7.46h95.958c5.764,0,10.511,4.747,10.511,10.511c0,5.764-4.747,10.511-10.511,10.511h-88.159  L307.2,380.779C305.844,385.187,301.775,388.238,297.028,388.238z"/>
<path style="fill:#7cb342;" d="M482.162,220.736l-43.74-11.868c-4.747-18.649-11.868-36.281-21.701-52.217l22.718-38.993  c2.374-4.408,1.695-9.833-1.695-13.563l-32.551-32.551c-3.73-3.73-9.155-4.408-13.563-1.695l-38.993,22.718  c-15.936-9.833-33.568-16.954-52.217-21.701l-11.868-43.74c-1.356-4.747-5.764-8.477-10.85-8.477h-46.114  c-5.086,0-9.494,3.391-10.85,8.477l-11.868,43.74c-18.649,4.747-36.281,11.868-52.217,21.701l-38.993-22.718  c-4.408-2.374-9.833-1.695-13.563,1.695l-32.551,32.551c-3.73,3.73-4.408,9.155-1.695,13.563l22.718,38.993  c-9.833,15.936-16.954,33.568-21.701,52.217l-43.74,11.868c-4.747,1.356-8.477,5.764-8.477,10.85v45.775  c0,5.086,3.391,9.494,8.477,10.85l43.74,11.868c4.747,18.649,11.868,36.281,21.701,52.217l-22.718,39.332  c-2.374,4.408-1.695,9.833,1.695,13.563l32.551,32.551c3.73,3.73,9.155,4.408,13.563,1.695l38.993-22.718  c15.936,9.833,33.568,16.954,52.217,21.701l11.868,43.74c1.356,4.747,5.764,8.477,10.85,8.477h45.775  c5.086,0,9.494-3.391,10.85-8.477l11.868-43.74c18.649-4.747,36.281-11.868,52.217-21.701l38.993,22.718  c4.408,2.373,9.833,1.695,13.563-1.695l32.551-32.551c3.73-3.73,4.408-9.155,1.695-13.563l-22.718-38.993  c9.833-15.936,16.954-33.568,21.701-52.217l43.74-11.868c4.747-1.356,8.477-5.764,8.477-10.85v-46.114  C490.638,226.501,487.248,222.093,482.162,220.736z M254.644,408.583c-85.107,0-153.939-68.832-153.939-153.939  s68.832-153.939,153.939-153.939s153.939,68.832,153.939,153.939S339.751,408.583,254.644,408.583z"/>
</svg>